<svg xmlns="http://www.w3.org/2000/svg" viewBox="0 0 240 240" role="img" aria-label="Balón Quiniela Joan Santos">
  <defs>
    <linearGradient id="g" x1="0" y1="0" x2="1" y2="1">
      <stop offset="0" stop-color="#00A859"/>
      <stop offset="1" stop-color="#007A45"/>
    </linearGradient>
  </defs>
  <circle cx="120" cy="120" r="108" fill="#071A33" stroke="#ffffff" stroke-width="8"/>
  <path d="M120 26A94 94 0 0 1 213 112" fill="none" stroke="#E5007D" stroke-width="13" stroke-linecap="round"/>
  <path d="M27 128A94 94 0 0 0 120 214" fill="none" stroke="#00A859" stroke-width="13" stroke-linecap="round"/>
  <circle cx="120" cy="120" r="73" fill="#fff"/>
  <path d="m120 73 30 22-11 35h-38L90 95Z" fill="#071A33"/>
  <path d="m90 95-26 19 10 32 27-16m49-35 26 19-10 32-27-16m-38 0-11 33m49-33 11 33" stroke="url(#g)" stroke-width="8" fill="none" stroke-linecap="round"/>
  <circle cx="120" cy="120" r="73" fill="none" stroke="#dbe4ef" stroke-width="4"/>
  <rect x="54" y="190" width="132" height="30" rx="15" fill="#E5007D"/>
  <text x="120" y="211" text-anchor="middle" font-family="Arial,Helvetica,sans-serif" font-size="16" font-weight="800" fill="#fff">JOAN SANTOS</text>
</svg>
